<?xml version="1.0" standalone="no"?><!DOCTYPE svg PUBLIC "-//W3C//DTD SVG 1.1//EN" "http://www.w3.org/Graphics/SVG/1.1/DTD/svg11.dtd"><svg t="1490004325647" class="icon" style="" viewBox="0 0 1024 1024" version="1.1" xmlns="http://www.w3.org/2000/svg" p-id="1011" xmlns:xlink="http://www.w3.org/1999/xlink" width="48" height="48"><defs><style type="text/css"></style></defs><path d="M832 592q0 20-14 34t-34 14q-25.5 0-40-21.5l-113.5-170.5-22.5 0 0 66 123.5 205.5q4.5 7.5 4.5 16.5 0 13-9.5 22.5t-22.5 9.5l-96 0 0 136q0 23-16.5 39.5t-39.5 16.5l-80 0q-23 0-39.5-16.5t-16.5-39.5l0-136-96 0q-13 0-22.5-9.5t-9.5-22.5q0-9 4.5-16.5l123.5-205.5 0-66-22.5 0-113.5 170.5q-14.5 21.5-40 21.5-20 0-34-14t-14-34q0-14.5 8-26.5l128-192q36.5-53.5 88-53.5l192 0q51.5 0 88 53.5l128 192q8 12 8 26.5zm-208-400q0 46.5-32.75 79.25t-79.25 32.75-79.25-32.75-32.75-79.25 32.75-79.25 79.25-32.75 79.25 32.75 32.75 79.25z" p-id="1012"></path></svg>