<?xml version="1.0" standalone="no"?><!DOCTYPE svg PUBLIC "-//W3C//DTD SVG 1.1//EN" "http://www.w3.org/Graphics/SVG/1.1/DTD/svg11.dtd"><svg t="1490004378968" class="icon" style="" viewBox="0 0 1024 1024" version="1.1" xmlns="http://www.w3.org/2000/svg" p-id="1669" xmlns:xlink="http://www.w3.org/1999/xlink" width="48" height="48"><defs><style type="text/css"></style></defs><path d="M615.039999 475.434672c23.168-44.842666 36.565333-95.658666 36.565333-149.631999 0-179.882665-145.877332-325.802664-325.802664-325.802664C145.920003-0.042657 5.0e-06 145.877341 5.0e-06 325.802673c0 179.925332 145.919999 325.84533 325.802664 325.84533 54.016 0 104.789332-13.354667 149.589332-36.608l176.213332 176.170665 93.141332 0c0 0.085333 0 93.141332 0 93.141332l93.055999 0 0 93.098666L884.351997 1024 1023.999995 1024l0-139.647999L615.039999 475.434672zM234.624003 341.33334C175.78667 341.33334 128.000004 293.58934 128.000004 234.666674 128.000004 175.744008 175.78667 128.000008 234.624003 128.000008 293.589335 128.000008 341.333335 175.744008 341.333335 234.666674 341.333335 293.58934 293.589335 341.33334 234.624003 341.33334z" p-id="1670"></path></svg>